:FULLY-SPECIFIED
:FORCE-ALL-JOINTS-BE-3DOF
:DEGREES
918
root -0.210839 14.1234 -36.3288 372.432 -26.4918 343.577
lfemur -64.6049 31.3249 -0.546737
ltibia 69.2879 0 0
lfoot -6.95917 -9.81141 0
ltoes -11.0406 0 0
rfemur 6.24681 -8.41374 13.6927
rtibia 38.1042 0 0
rfoot -22.1122 -29.4253 0
rtoes -27.2665 0 0
lowerback 11.4561 -0.0468326 6.75954
upperback -1.63133 1.30072 5.44461
thorax -8.19919 0.439005 1.7719
lowerneck -3.725 7.75431 2.46868
upperneck 3.72126 10.2455 -0.743994
head 1.96532 5.12624 -0.341966
lclavicle 2.26942e-15 1.52402e-14 0
lhumerus 11.364 14.5092 70.4108
lradius 11.7129 0 0
lwrist -47.1415 0 0
lhand -28.41 28.1741 0
lfingers 7.12502 0 0
lthumb -1.78169 58.1362 0
rclavicle 2.26942e-15 1.52402e-14 0
rhumerus -76.8988 21.2547 -96.4306
rradius 110.037 0 0
rwrist -67.9508 0 0
rhand -10.8215 -24.6172 0
rfingers 7.12502 0 0
rthumb 15.1925 -54.0394 0
919
root -0.202179 14.1141 -36.3216 372.386 -26.5627 343.567
lfemur -64.5272 31.3407 -0.491918
ltibia 69.3434 0 0
lfoot -6.96051 -9.84041 0
ltoes -10.7754 0 0
rfemur 6.23394 -8.37624 13.6744
rtibia 38.2319 0 0
rfoot -22.1482 -29.4069 0
rtoes -27.225 0 0
lowerback 11.4452 -0.0423697 6.7483
upperback -1.6125 1.30346 5.47433
thorax -8.17364 0.44211 1.80907
lowerneck -3.74853 7.75879 2.50102
upperneck 3.79871 10.2507 -0.7653
head 1.99839 5.1287 -0.350394
lclavicle -3.94927e-16 1.31424e-14 0
lhumerus 11.1241 13.6456 70.5895
lradius 11.9643 0 0
lwrist -46.1046 0 0
lhand -28.1698 28.1145 0
lfingers 7.12502 0 0
lthumb -1.5498 58.0782 0
rclavicle -3.94927e-16 1.31424e-14 0
rhumerus -76.8823 21.269 -96.3887
rradius 110.008 0 0
rwrist -67.9312 0 0
rhand -10.807 -24.6259 0
rfingers 7.12502 0 0
rthumb 15.2065 -54.0471 0
920
root -0.193519 14.1048 -36.3145 372.341 -26.6304 343.547
lfemur -64.4814 31.3755 -0.453791
ltibia 69.444 0 0
lfoot -6.97024 -9.88185 0
ltoes -10.4548 0 0
rfemur 6.23428 -8.3478 13.6436
rtibia 38.3535 0 0
rfoot -22.1893 -29.3735 0
rtoes -27.2141 0 0
lowerback 11.4284 -0.0428013 6.74504
upperback -1.59222 1.30078 5.51839
thorax -8.14338 0.442577 1.85817
lowerneck -3.77209 7.76511 2.54003
upperneck 3.89021 10.2583 -0.79211
head 2.037 5.13237 -0.361141
lclavicle -2.97778e-15 1.07232e-14 0
lhumerus 10.8783 12.3409 70.8301
lradius 12.3951 0 0
lwrist -44.6963 0 0
lhand -27.8911 28.0764 0
lfingers 7.12502 0 0
lthumb -1.28055 58.0419 0
rclavicle -2.97778e-15 1.07232e-14 0
rhumerus -76.8661 21.2834 -96.3414
rradius 109.981 0 0
rwrist -67.9044 0 0
rhand -10.7944 -24.637 0
rfingers 7.12502 0 0
rthumb 15.2185 -54.0573 0
921
root -0.184859 14.0955 -36.3074 372.297 -26.6905 343.515
lfemur -64.4787 31.4347 -0.438244
ltibia 69.6004 0 0
lfoot -6.99152 -9.94017 0
ltoes -10.0719 0 0
rfemur 6.25274 -8.33119 13.5991
rtibia 38.4639 0 0
rfoot -22.235 -29.3239 0
rtoes -27.2411 0 0
lowerback 11.4042 -0.049598 6.75235
upperback -1.57039 1.29113 5.5798
thorax -8.1076 0.439605 1.92126
lowerneck -3.7952 7.7735 2.58711
upperneck 3.99697 10.2688 -0.825404
head 2.08162 5.13739 -0.374711
lclavicle -5.40929e-15 7.97206e-15 0
lhumerus 10.6301 10.542 71.145
lradius 13.0222 0 0
lwrist -42.8758 0 0
lhand -27.5655 28.0612 0
lfingers 7.12502 0 0
lthumb -0.966094 58.0285 0
rclavicle -5.40929e-15 7.97206e-15 0
rhumerus -76.8511 21.2967 -96.2879
rradius 109.955 0 0
rwrist -67.8688 0 0
rhand -10.7836 -24.6516 0
rfingers 7.12502 0 0
rthumb 15.229 -54.0711 0
922
root -0.176198 14.0862 -36.3003 372.257 -26.7388 343.468
lfemur -64.5303 31.5234 -0.451164
ltibia 69.8231 0 0
lfoot -7.02752 -10.0198 0
ltoes -9.6194 0 0
rfemur 6.29425 -8.3292 13.5394
rtibia 38.5578 0 0
rfoot -22.2845 -29.2568 0
rtoes -27.3132 0 0
lowerback 11.3714 -0.06423 6.77282
upperback -1.54691 1.27296 5.66156
thorax -8.06548 0.432395 2.00042
lowerneck -3.8174 7.78422 2.64364
upperneck 4.1202 10.2823 -0.86616
head 2.13274 5.14394 -0.391607
lclavicle -7.61964e-15 4.87863e-15 0
lhumerus 10.3828 8.19545 71.5468
lradius 13.8621 0 0
lwrist -40.602 0 0
lhand -27.1849 28.0698 0
lfingers 7.12502 0 0
lthumb -0.598574 58.0393 0
rclavicle -7.61964e-15 4.87863e-15 0
rhumerus -76.8381 21.3077 -96.2272
rradius 109.931 0 0
rwrist -67.8229 0 0
rhand -10.774 -24.6708 0
rfingers 7.12502 0 0
rthumb 15.2382 -54.0896 0
923
root -0.167538 14.0768 -36.2931 372.22 -26.7711 343.403
lfemur -64.6474 31.6468 -0.498441
ltibia 70.1227 0 0
lfoot -7.08139 -10.1251 0
ltoes -9.09039 0 0
rfemur 6.36373 -8.34462 13.4635
rtibia 38.6302 0 0
rfoot -22.3373 -29.1712 0
rtoes -27.4378 0 0
lowerback 11.3286 -0.0881678 6.80905
upperback -1.52168 1.24471 5.76668
thorax -8.0162 0.420149 2.09771
lowerneck -3.83823 7.7975 2.71105
upperneck 4.2611 10.2994 -0.915357
head 2.19083 5.15217 -0.412334
lclavicle -9.53898e-15 1.43245e-15 0
lhumerus 10.1398 5.24804 72.0479
lradius 14.9319 0 0
lwrist -37.8341 0 0
lhand -26.7413 28.1036 0
lfingers 7.12502 0 0
lthumb -0.170142 58.0754 0
rclavicle -9.53898e-15 1.43245e-15 0
rhumerus -76.8278 21.315 -96.1584
rradius 109.909 0 0
rwrist -67.765 0 0
rhand -10.7654 -24.6958 0
rfingers 7.12502 0 0
rthumb 15.2465 -54.114 0
924
root -0.158878 14.0675 -36.286 372.187 -26.7832 343.316
lfemur -64.8411 31.8102 -0.58596
ltibia 70.5099 0 0
lfoot -7.1563 -10.2605 0
ltoes -8.47774 0 0
rfemur 6.4661 -8.38022 13.3699
rtibia 38.6758 0 0
rfoot -22.3926 -29.0657 0
rtoes -27.6221 0 0
lowerback 11.2745 -0.122882 6.86362
upperback -1.4946 1.20484 5.89817
thorax -7.95896 0.402066 2.21522
lowerneck -3.85721 7.8136 2.79072
upperneck 4.42088 10.3202 -0.973974
head 2.25637 5.16224 -0.437396
lclavicle -1.10975e-14 -2.37691e-15 0
lhumerus 9.90452 1.64646 72.6608
lradius 16.2481 0 0
lwrist -34.531 0 0
lhand -26.2265 28.1637 0
lfingers 7.12502 0 0
lthumb 0.327052 58.1383 0
rclavicle -1.10975e-14 -2.37691e-15 0
rhumerus -76.821 21.3175 -96.0807
rradius 109.888 0 0
rwrist -67.6938 0 0
rhand -10.7575 -24.7278 0
rfingers 7.12502 0 0
rthumb 15.2541 -54.1453 0
925
root -0.150218 14.0582 -36.2789 372.159 -26.7707 343.206
lfemur -65.1227 32.0189 -0.71961
ltibia 70.9954 0 0
lfoot -7.25541 -10.4304 0
ltoes -7.77438 0 0
rfemur 6.60628 -8.4388 13.2575
rtibia 38.6896 0 0
rfoot -22.4499 -28.9393 0
rtoes -27.8734 0 0
lowerback 11.2078 -0.169842 6.93913
upperback -1.46556 1.1518 6.05903
thorax -7.89293 0.377348 2.35501
lowerneck -3.87389 7.83276 2.88405
upperneck 4.60076 10.3451 -1.04299
head 2.32985 5.1743 -0.467298
lclavicle -1.22253e-14 -6.55989e-15 0
lhumerus 9.68028 -2.6626 73.398
lradius 17.8277 0 0
lwrist -30.6517 0 0
lhand -25.6323 28.2512 0
lfingers 7.12502 0 0
lthumb 0.90086 58.229 0
rclavicle -1.22253e-14 -6.55989e-15 0
rhumerus -76.8186 21.3138 -95.993
rradius 109.868 0 0
rwrist -67.6076 0 0
rhand -10.7499 -24.7678 0
rfingers 7.12502 0 0
rthumb 15.2614 -54.1848 0
926
root -0.140495 14.0506 -36.267 372.136 -26.7476 343.094
lfemur -65.4242 32.2328 -0.865799
ltibia 71.487 0 0
lfoot -7.35269 -10.6045 0
ltoes -7.07141 0 0
rfemur 6.75187 -8.50574 13.1443
rtibia 38.6879 0 0
rfoot -22.507 -28.8095 0
rtoes -28.1425 0 0
lowerback 11.1391 -0.217863 7.02068
upperback -1.438 1.09819 6.22072
thorax -7.82736 0.352077 2.49242
lowerneck -3.88724 7.85126 2.97566
upperneck 4.77659 10.3693 -1.11139
head 2.40124 5.18599 -0.497036
lclavicle -1.31133e-14 -1.08778e-14 0
lhumerus 9.28881 -7.03461 74.298
lradius 19.3569 0 0
lwrist -26.7494 0 0
lhand -25.0327 28.3499 0
lfingers 7.12502 0 0
lthumb 1.47992 58.3307 0
rclavicle -1.31133e-14 -1.08778e-14 0
rhumerus -76.8184 21.3084 -95.9094
rradius 109.848 0 0
rwrist -67.5303 0 0
rhand -10.7488 -24.8036 0
rfingers 7.12502 0 0
rthumb 15.2625 -54.2205 0
927
root -0.130772 14.043 -36.255 372.118 -26.7305 343.002
lfemur -65.6736 32.4108 -0.988575
ltibia 71.8915 0 0
lfoot -7.42211 -10.7508 0
ltoes -6.45971 0 0
rfemur 6.86898 -8.5651 13.0478
rtibia 38.6899 0 0
rfoot -22.5622 -28.6936 0
rtoes -28.3778 0 0
lowerback 11.0793 -0.255553 7.09216
upperback -1.41515 1.05674 6.35456
thorax -7.77153 0.332437 2.60333
lowerneck -3.8968 7.86558 3.05028
upperneck 4.92518 10.3881 -1.16826
head 2.46098 5.19506 -0.52159
lclavicle -1.39867e-14 -1.50715e-14 0
lhumerus 8.58617 -10.8306 75.3664
lradius 20.5427 0 0
lwrist -23.3688 0 0
lhand -24.5046 28.4441 0
lfingers 7.12502 0 0
lthumb 1.98992 58.427 0
rclavicle -1.39867e-14 -1.50715e-14 0
rhumerus -76.8177 21.3066 -95.8435
rradius 109.826 0 0
rwrist -67.4841 0 0
rhand -10.7596 -24.8232 0
rfingers 7.12502 0 0
rthumb 15.252 -54.241 0
928
root -0.121048 14.0354 -36.2431 372.105 -26.7191 342.929
lfemur -65.8761 32.5562 -1.09028
ltibia 72.2179 0 0
lfoot -7.4668 -10.8713 0
ltoes -5.93193 0 0
rfemur 6.96034 -8.6177 12.966
rtibia 38.6952 0 0
rfoot -22.6157 -28.59 0
rtoes -28.5827 0 0
lowerback 11.0279 -0.284069 7.15429
upperback -1.39666 1.02604 6.46333
thorax -7.72465 0.317782 2.69057
lowerneck -3.90296 7.87622 3.10949
upperneck 5.0492 10.4022 -1.21469
head 2.51019 5.20185 -0.54144
lclavicle -1.48272e-14 -1.9121e-14 0
lhumerus 7.6273 -14.1121 76.5664
lradius 21.4333 0 0
lwrist -20.4564 0 0
lhand -24.0445 28.5358 0
lfingers 7.12502 0 0
lthumb 2.43427 58.5201 0
rclavicle -1.48272e-14 -1.9121e-14 0
rhumerus -76.8167 21.3081 -95.7934
rradius 109.804 0 0
rwrist -67.4647 0 0
rhand -10.7809 -24.8288 0
rfingers 7.12502 0 0
rthumb 15.2315 -54.2481 0
929
root -0.111325 14.0278 -36.2311 372.096 -26.713 342.873
lfemur -66.0369 32.6724 -1.17326
ltibia 72.4748 0 0
lfoot -7.48991 -10.968 0
ltoes -5.48071 0 0
rfemur 7.02868 -8.66434 12.8968
rtibia 38.7028 0 0
rfoot -22.6674 -28.4968 0
rtoes -28.7606 0 0
lowerback 10.984 -0.30457 7.20782
upperback -1.38213 1.0047 6.54985
thorax -7.68596 0.307466 2.757
lowerneck -3.9061 7.88373 3.15487
upperneck 5.15129 10.4124 -1.25177
head 2.55003 5.20668 -0.557064
lclavicle -1.56164e-14 -2.30063e-14 0
lhumerus 6.46711 -16.9406 77.8612
lradius 22.0767 0 0
lwrist -17.9587 0 0
lhand -23.6488 28.627 0
lfingers 7.12502 0 0
lthumb 2.81639 58.612 0
rclavicle -1.56164e-14 -2.30063e-14 0
rhumerus -76.8151 21.3127 -95.7575
rradius 109.782 0 0
rwrist -67.4681 0 0
rhand -10.8113 -24.8221 0
rfingers 7.12502 0 0
rthumb 15.2022 -54.2436 0
930
root -0.101602 14.0202 -36.2192 372.09 -26.7121 342.831
lfemur -66.1612 32.7627 -1.23986
ltibia 72.6713 0 0
lfoot -7.49458 -11.0427 0
ltoes -5.09868 0 0
rfemur 7.07671 -8.70581 12.8382
rtibia 38.7122 0 0
rfoot -22.7174 -28.4125 0
rtoes -28.9151 0 0
lowerback 10.947 -0.318217 7.25349
upperback -1.37121 0.991313 6.61689
thorax -7.65467 0.300842 2.80547
lowerneck -3.90663 7.88861 3.18799
upperneck 5.23409 10.4192 -1.28062
head 2.58164 5.20988 -0.56894
lclavicle -1.6336e-14 -2.67074e-14 0
lhumerus 5.16054 -19.3778 79.2137
lradius 22.5206 0 0
lwrist -15.8221 0 0
lhand -23.3141 28.7197 0
lfingers 7.12502 0 0
lthumb 3.1397 58.7047 0
rclavicle -1.6336e-14 -2.67074e-14 0
rhumerus -76.8132 21.3203 -95.734
rradius 109.762 0 0
rwrist -67.4901 0 0
rhand -10.8493 -24.8051 0
rfingers 7.12502 0 0
rthumb 15.1656 -54.2294 0
931
root -0.0918789 14.0126 -36.2073 372.089 -26.716 342.802
lfemur -66.2541 32.8305 -1.29243
ltibia 72.8163 0 0
lfoot -7.48394 -11.0977 0
ltoes -4.77848 0 0
rfemur 7.10717 -8.74294 12.788
rtibia 38.7225 0 0
rfoot -22.7657 -28.3352 0
rtoes -29.0495 0 0
lowerback 10.916 -0.326166 7.29203
upperback -1.3635 0.984493 6.66726
thorax -7.63002 0.297265 2.83884
lowerneck -3.90492 7.8914 3.21043
upperneck 5.30027 10.4234 -1.30233
head 2.60617 5.2118 -0.577547
lclavicle -1.69677e-14 -3.02043e-14 0
lhumerus 3.76252 -21.4853 80.5874
lradius 22.8133 0 0
lwrist -13.9932 0 0
lhand -23.0367 28.8159 0
lfingers 7.12502 0 0
lthumb 3.40763 58.8004 0
rclavicle -1.69677e-14 -3.02043e-14 0
rhumerus -76.8108 21.3306 -95.7213
rradius 109.744 0 0
rwrist -67.5265 0 0
rhand -10.8935 -24.7798 0
rfingers 7.12502 0 0
rthumb 15.1231 -54.2074 0
